PathFileType  4	(X/Y/Z) C:\Users\HPL 1\Documents/Temp/Sub278498/Files_W_HJCs/
DataRate	CameraRate	NumFrames	NumMarkers	Units	OrigDataRate	OrigDataStartFrame	OrigNumFrames
50.0	50.0	8	42	mm	50.0	343	684
Frame#	Time  	r_knee			r_shank(antsup)			r_ankle			r_calc			r_5meta			r_toe			L_knee			L_shank(ant_sup)			L_ankle			L_calc			L_5meta			L_toe			r_mknee			r_mankle			L_mknee			L_mankle			r_sh2			r_sh3			r_sh4			L_sh2			L_sh3			r_thigh1			r_thigh2			r_thigh3			r_thigh4			r_thigh5			L_thigh1			L_thigh2			L_thigh3			L_thigh4			r.ASIS			r.PSIS			L.ASIS			L.PSIS			C7			R_Shoulder			L_Shoulder			Sternum			R_HJC			L_HJC			R_HJC_reg			L_HJC_reg			
		X1	Y1	Z1	X2	Y2	Z2	X3	Y3	Z3	X4	Y4	Z4	X5	Y5	Z5	X6	Y6	Z6	X7	Y7	Z7	X8	Y8	Z8	X9	Y9	Z9	X10	Y10	Z10	X11	Y11	Z11	X12	Y12	Z12	X13	Y13	Z13	X14	Y14	Z14	X15	Y15	Z15	X16	Y16	Z16	X17	Y17	Z17	X18	Y18	Z18	X19	Y19	Z19	X20	Y20	Z20	X21	Y21	Z21	X22	Y22	Z22	X23	Y23	Z23	X24	Y24	Z24	X25	Y25	Z25	X26	Y26	Z26	X27	Y27	Z27	X28	Y28	Z28	X29	Y29	Z29	X30	Y30	Z30	X31	Y31	Z31	X32	Y32	Z32	X33	Y33	Z33	X34	Y34	Z34	X35	Y35	Z35	X36	Y36	Z36	X37	Y37	Z37	X38	Y38	Z38	X39	Y39	Z39	X40	Y40	Z40	X41	Y41	Z41	X42	Y42	Z42	

343	6.84000	763.92291	572.16998	-266.45029	780.27448	482.20532	-262.44360	708.86664	111.31322	-285.07715	621.39789	69.14275	-333.31601	817.35907	39.54847	-249.98378	861.20239	73.60762	-309.96652	764.67029	594.48480	-550.63220	794.67926	476.22464	-541.70496	706.10272	134.68211	-548.00446	622.61957	91.00557	-508.04089	827.80939	60.13121	-568.23291	861.88397	89.47704	-503.89209	769.15802	557.66272	-394.15350	725.94501	118.21814	-380.47632	764.45740	588.62708	-423.63419	720.70691	138.99852	-453.62906	771.13196	362.58963	-268.26727	704.38397	484.67999	-255.66145	688.32806	369.81320	-255.66316	711.45087	496.33826	-575.54602	698.09344	374.71704	-576.43225	800.50751	900.48462	-241.28944	815.13708	786.08569	-245.45024	771.18195	748.65417	-237.08363	688.93604	881.68164	-228.38693	707.56421	765.96619	-245.52602	829.87073	868.11035	-573.48822	842.02887	730.75214	-559.96448	716.81146	857.17480	-601.90234	730.80542	725.02814	-578.90228	822.54218	1082.81470	-273.74011	633.50385	1135.67029	-354.86243	823.48468	1120.52661	-525.96069	637.69531	1145.12122	-437.55359	710.44971	1622.91345	-383.63342	764.13239	1589.39282	-216.74918	774.54852	1586.75806	-560.95532	842.00793	1537.95752	-378.04745	749.06156	999.77391	-295.25885	750.48916	1034.25750	-529.09011	744.90034	1019.11538	-321.07454	753.36611	1038.20406	-488.09141
344	6.86000	764.10175	572.21820	-266.67798	780.44958	482.20773	-262.60074	708.88794	111.29406	-285.04007	621.36194	69.13648	-333.34479	817.35114	39.51509	-249.96465	861.21082	73.59228	-309.97543	763.31476	594.45673	-551.96191	793.41168	476.39871	-543.15784	705.37897	134.42381	-548.99561	622.10632	90.74598	-508.63416	827.02814	60.21524	-569.92987	861.43811	89.55885	-505.83472	768.80273	557.55945	-394.39944	725.93701	118.18495	-380.46625	764.05469	588.89880	-426.14874	720.58807	138.90294	-454.70499	771.25879	362.54825	-268.35889	704.55524	484.57520	-255.65648	688.45215	369.81512	-255.63963	710.06506	496.43011	-576.55750	696.63806	374.90512	-577.44519	800.82587	900.71436	-241.98398	815.62695	786.37372	-245.99001	771.62549	748.88422	-237.55737	689.24567	881.87897	-228.75955	707.98126	766.12598	-245.93117	828.60883	868.13068	-574.63275	840.88959	730.96252	-561.35455	715.41229	857.38849	-602.42401	729.41614	725.22113	-579.75458	822.97504	1082.70483	-274.54932	633.60687	1135.74292	-355.31729	823.06464	1120.62537	-526.96179	637.47943	1145.10791	-437.85507	710.86310	1622.86975	-384.20526	764.96533	1589.34155	-217.22311	774.72131	1586.68604	-561.50427	842.27454	1537.75134	-378.76288	749.34318	999.73463	-296.02056	750.05633	1034.33193	-529.83829	745.09490	1019.17802	-321.55272	752.93998	1038.14974	-488.75882
345	6.88000	764.45898	572.39014	-266.83588	780.75549	482.28262	-262.75140	708.97614	111.32928	-285.01794	621.35938	69.15369	-333.38977	817.35199	39.52182	-249.94016	861.22284	73.60595	-309.91907	761.55853	594.79187	-553.52509	791.61670	476.86554	-544.92334	703.97559	134.20303	-549.77734	621.21039	90.24457	-508.65097	825.86395	60.33321	-571.61322	860.62018	90.00912	-507.87415	768.49548	557.59418	-394.63235	726.01221	118.25002	-380.44250	762.15540	588.67944	-427.02274	720.24872	139.06305	-455.55286	771.50403	362.54660	-268.42838	704.84088	484.64001	-255.71793	688.69995	369.94928	-255.62569	707.76019	496.66922	-577.23981	694.77417	375.08447	-578.25604	800.96686	901.12817	-242.56479	816.13403	786.78693	-246.69800	772.16498	749.28033	-238.02144	689.73846	882.24994	-228.76912	708.31329	766.37848	-246.01534	827.34424	868.15399	-575.93555	839.25317	730.79999	-563.10095	714.03613	857.79779	-602.98285	727.65881	725.45422	-580.23883	823.12848	1082.84912	-275.71725	633.70831	1135.75964	-355.56192	822.69135	1120.87451	-528.06061	637.43195	1145.13330	-438.10776	711.41534	1622.70422	-384.57175	765.72058	1589.21985	-217.66443	774.95526	1586.62109	-561.96899	842.68280	1537.46399	-379.43289	749.70735	999.78515	-296.86076	749.63294	1034.54183	-530.65593	745.18241	1019.36027	-322.56964	752.72406	1038.34516	-489.75339
346	6.90000	765.41174	572.59753	-267.01846	781.40118	482.38934	-262.81238	709.12537	111.42405	-285.00623	621.37585	69.28297	-333.47690	817.36737	39.49319	-249.92888	861.30133	73.56133	-309.90308	758.86621	594.85529	-555.46320	788.70251	477.06934	-547.01678	701.84802	133.67911	-550.79047	619.75476	89.11779	-508.74951	823.96722	60.55218	-573.65985	859.19623	90.71909	-510.38031	769.34393	557.84698	-394.87396	726.21332	118.37059	-380.47629	761.96564	589.02136	-429.78824	719.02130	138.91548	-456.65790	771.95715	362.69016	-268.37415	705.47095	484.91168	-255.96585	689.11938	370.18079	-255.97223	703.95758	496.44299	-578.47260	691.49493	375.04263	-579.26984	801.36230	901.43317	-243.15492	816.49878	787.14594	-247.25279	772.68384	749.67188	-238.33209	690.04572	882.35260	-228.61617	708.75702	766.63013	-245.81071	825.72260	867.95325	-577.43958	837.18567	730.49969	-564.98798	712.02441	858.27789	-603.65509	725.34430	725.86908	-581.20068	822.84015	1082.99023	-276.64529	633.62177	1135.81213	-356.00943	822.66638	1121.01965	-529.09167	637.47162	1145.14038	-438.60739	712.00018	1622.64478	-384.81003	766.54376	1588.91772	-218.13339	775.23224	1586.56226	-562.31140	843.18512	1537.13147	-379.91837	749.71632	999.84548	-297.63808	749.45618	1034.66949	-531.42309	744.90321	1019.53988	-323.58226	752.69870	1038.42846	-490.83319
347	6.92000	766.19379	572.47559	-267.06281	782.14258	482.21664	-262.65366	709.20306	111.39835	-284.98788	621.32764	69.33620	-333.51111	817.39313	39.45639	-249.89241	861.33453	73.48960	-309.87906	754.90320	594.67273	-557.69720	784.41602	476.52499	-549.97668	698.72546	133.09494	-552.66309	617.28949	87.76736	-509.89963	821.31555	60.85475	-576.28149	856.72675	91.62252	-513.43622	771.29327	557.92792	-394.69162	726.70123	118.39992	-380.43094	759.26501	588.28540	-432.05359	716.70050	138.66765	-458.84058	772.56177	362.60205	-268.32062	706.26428	485.05026	-256.02780	689.74603	370.31577	-256.06036	700.04230	496.35443	-580.15179	687.18567	374.68359	-580.91321	801.08496	901.73114	-243.00563	816.56537	787.32214	-247.18195	772.94482	749.84930	-238.41789	689.83026	882.26563	-228.89119	708.98590	766.48010	-245.84950	823.73450	867.34790	-579.02460	834.20435	729.73651	-567.32733	709.78979	858.63440	-604.24365	722.19818	726.01013	-582.60889	822.26581	1082.93677	-276.97153	633.47388	1135.93628	-356.87372	822.90424	1120.67371	-529.64990	637.58008	1145.34985	-439.38370	712.67773	1622.32983	-384.99362	767.26440	1588.52832	-218.46774	775.83563	1586.44861	-562.67712	843.79248	1536.86035	-380.18253	749.12672	999.88063	-298.11006	749.49153	1034.49017	-531.92678	744.44439	1019.23180	-324.30442	752.77158	1038.32211	-491.63104
348	6.94000	767.21820	572.25977	-266.85944	783.03711	481.97601	-262.44189	709.33551	111.36349	-284.91919	621.16699	69.34245	-333.54483	817.35742	39.76684	-249.45479	861.47314	73.55250	-309.76318	750.19562	594.67786	-560.33136	779.46173	476.31390	-553.07330	694.45355	132.53162	-556.08832	613.33209	86.59616	-513.38818	817.50171	61.35915	-580.01788	852.64978	92.20029	-517.12396	772.73883	557.58270	-394.37088	726.44055	118.43345	-380.35953	755.34131	587.60327	-434.62164	712.60260	138.23851	-462.24814	773.17310	362.31769	-268.09875	707.13123	484.93625	-255.67781	690.31293	370.27502	-255.81740	694.88159	496.34079	-582.44061	682.12311	374.60349	-583.64075	800.47412	902.01868	-242.95404	816.56232	787.76178	-246.97484	772.99756	750.05884	-238.39645	689.28107	882.12000	-229.03162	708.97693	766.43304	-245.81015	821.26941	866.73657	-580.47369	830.63843	728.92670	-569.72815	707.22516	859.35291	-604.99146	718.42303	726.17316	-584.21362	821.64581	1082.55444	-277.13934	633.18097	1135.98242	-357.81622	823.27905	1120.17261	-529.74457	637.76367	1145.63330	-439.99097	713.61084	1621.90942	-385.35391	767.66541	1588.27185	-218.72523	776.73755	1586.18054	-562.90686	844.71234	1536.36401	-380.26889	748.28549	999.68110	-298.49094	749.59327	1034.28402	-532.30526	743.79539	1018.61839	-325.19542	753.11722	1038.24960	-492.35010
349	6.96000	767.58673	572.13568	-266.64487	783.55493	481.84644	-262.17215	709.39929	111.28887	-284.84360	621.41760	69.23446	-333.42981	817.35571	39.72552	-249.40376	861.35938	73.31104	-309.75037	744.97052	594.81451	-563.37805	773.46057	476.17291	-556.51337	688.32001	132.40591	-561.29156	607.13617	86.05548	-519.16760	811.57147	61.57441	-585.15857	846.39081	92.27549	-522.05676	773.21790	557.44922	-394.20587	726.40179	118.42917	-380.25775	749.46466	586.72040	-437.51526	706.13074	137.78659	-467.41312	773.52252	362.23126	-267.85120	707.66516	484.92578	-255.29221	691.25134	369.80621	-253.74834	689.43268	497.06940	-586.48859	676.20251	375.03378	-587.86029	799.93451	902.22150	-242.90828	816.32318	788.04663	-246.81396	772.93073	750.19116	-238.23055	688.91699	882.03320	-229.00171	708.80682	766.40070	-245.60852	818.77374	866.13361	-581.65765	826.87292	728.24774	-571.72168	704.68372	860.21539	-605.91730	714.58545	726.51990	-586.21741	820.90826	1081.95532	-276.97696	633.02600	1135.83105	-358.39685	823.80762	1119.56995	-529.64008	638.11115	1145.69531	-440.61148	714.69354	1621.45618	-385.75629	767.93628	1588.04041	-218.90219	778.29596	1585.63818	-563.14667	845.60242	1535.75293	-380.21240	747.45875	999.26876	-298.67897	749.88387	1033.93529	-532.47495	743.12819	1017.90767	-325.71618	753.46311	1037.95554	-492.80706
350	6.98000	767.52661	572.04272	-266.51212	783.54993	481.76550	-262.03058	709.43256	111.24173	-284.91776	621.40356	69.14617	-333.48578	817.36798	39.31559	-249.75253	861.32990	73.23254	-309.75659	739.35907	595.21979	-566.87756	766.48138	476.56277	-561.02484	679.68707	132.98581	-568.27368	598.23309	86.52747	-527.40625	802.70648	61.93850	-592.28229	837.24188	92.21503	-528.74316	773.50116	557.56189	-394.07153	726.47974	118.37096	-380.24039	743.66089	585.80981	-441.02051	696.95605	137.70892	-474.42682	773.42767	362.10913	-267.82980	707.60339	484.81079	-255.29428	691.21808	369.65524	-253.84331	682.79211	497.95819	-590.89111	668.82361	376.08524	-593.38519	799.49274	902.25500	-242.66336	816.16766	788.08032	-246.67030	772.74542	750.16479	-237.98643	688.51410	881.86450	-228.66756	708.64575	766.24811	-245.31206	816.48102	865.85809	-582.59235	822.96515	727.66498	-573.71393	702.28906	861.37531	-606.98425	710.88916	726.98883	-588.28217	820.25055	1081.55347	-276.55521	632.73053	1135.75293	-358.89587	824.40454	1119.08362	-529.32806	638.33722	1145.81091	-440.89240	715.84833	1621.28381	-386.36948	768.28674	1587.92969	-219.11456	780.40674	1585.03857	-563.44440	846.55103	1535.27417	-379.96933	746.68003	999.01223	-298.61078	750.21994	1033.67197	-532.39355	742.53345	1017.26469	-326.04557	753.95532	1037.75465	-493.08761
